<mxfile host="app.diagrams.net" modified="2021-12-19T10:59:32.161Z" agent="5.0 (Windows NT 10.0; Win64; x64) AppleWebKit/537.36 (KHTML, like Gecko) Chrome/96.0.4664.110 Safari/537.36" etag="i5OJj_GlruQvRR9iTHLI" version="16.0.0" type="github">
  <diagram id="yomT0WfXz6WAai5qIas7" name="Page-1">
    <mxGraphModel dx="1038" dy="2143" grid="1" gridSize="10" guides="1" tooltips="1" connect="1" arrows="1" fold="1" page="1" pageScale="1" pageWidth="1200" pageHeight="1600" math="0" shadow="0">
      <root>
        <mxCell id="0" />
        <mxCell id="1" parent="0" />
        <mxCell id="frgmzQPLA8ae-3pXjyA1-6" value="" style="rounded=0;whiteSpace=wrap;html=1;" vertex="1" parent="1">
          <mxGeometry x="100" y="-1490" width="290" height="50" as="geometry" />
        </mxCell>
        <mxCell id="frgmzQPLA8ae-3pXjyA1-7" value="Create Github Repo" style="text;html=1;strokeColor=none;fillColor=none;align=center;verticalAlign=middle;whiteSpace=wrap;rounded=0;" vertex="1" parent="1">
          <mxGeometry x="110" y="-1480" width="270" height="30" as="geometry" />
        </mxCell>
        <mxCell id="frgmzQPLA8ae-3pXjyA1-8" value="" style="rounded=0;whiteSpace=wrap;html=1;" vertex="1" parent="1">
          <mxGeometry x="100" y="-1420" width="290" height="50" as="geometry" />
        </mxCell>
        <mxCell id="frgmzQPLA8ae-3pXjyA1-9" value="Create Local Git Repo" style="text;html=1;strokeColor=none;fillColor=none;align=center;verticalAlign=middle;whiteSpace=wrap;rounded=0;" vertex="1" parent="1">
          <mxGeometry x="110" y="-1410" width="270" height="30" as="geometry" />
        </mxCell>
        <mxCell id="frgmzQPLA8ae-3pXjyA1-10" value="" style="rounded=0;whiteSpace=wrap;html=1;" vertex="1" parent="1">
          <mxGeometry x="100" y="-1340" width="290" height="50" as="geometry" />
        </mxCell>
        <mxCell id="frgmzQPLA8ae-3pXjyA1-11" value="Connect local Git to Remote Git" style="text;html=1;strokeColor=none;fillColor=none;align=center;verticalAlign=middle;whiteSpace=wrap;rounded=0;" vertex="1" parent="1">
          <mxGeometry x="110" y="-1330" width="270" height="30" as="geometry" />
        </mxCell>
        <mxCell id="frgmzQPLA8ae-3pXjyA1-12" value="" style="rounded=0;whiteSpace=wrap;html=1;" vertex="1" parent="1">
          <mxGeometry x="100" y="-1270" width="290" height="50" as="geometry" />
        </mxCell>
        <mxCell id="frgmzQPLA8ae-3pXjyA1-13" value="Push work to Github" style="text;html=1;strokeColor=none;fillColor=none;align=center;verticalAlign=middle;whiteSpace=wrap;rounded=0;" vertex="1" parent="1">
          <mxGeometry x="110" y="-1260" width="270" height="30" as="geometry" />
        </mxCell>
        <mxCell id="frgmzQPLA8ae-3pXjyA1-14" value="&lt;font style=&quot;font-size: 15px&quot;&gt;Github Setup for CI/CD&lt;/font&gt;" style="text;html=1;strokeColor=#6c8ebf;fillColor=#dae8fc;align=center;verticalAlign=middle;whiteSpace=wrap;rounded=0;" vertex="1" parent="1">
          <mxGeometry x="10" y="-1590" width="270" height="30" as="geometry" />
        </mxCell>
        <mxCell id="frgmzQPLA8ae-3pXjyA1-15" value="Travis CI flow" style="text;html=1;strokeColor=#b85450;fillColor=#f8cecc;align=center;verticalAlign=middle;whiteSpace=wrap;rounded=0;fontSize=15;" vertex="1" parent="1">
          <mxGeometry x="570" y="-1590" width="210" height="30" as="geometry" />
        </mxCell>
        <mxCell id="frgmzQPLA8ae-3pXjyA1-16" value="" style="rounded=1;whiteSpace=wrap;html=1;fontSize=15;" vertex="1" parent="1">
          <mxGeometry x="470" y="-1275" width="120" height="60" as="geometry" />
        </mxCell>
        <mxCell id="frgmzQPLA8ae-3pXjyA1-17" value="" style="rounded=1;whiteSpace=wrap;html=1;fontSize=15;" vertex="1" parent="1">
          <mxGeometry x="640" y="-1275" width="120" height="60" as="geometry" />
        </mxCell>
        <mxCell id="frgmzQPLA8ae-3pXjyA1-18" value="" style="rounded=1;whiteSpace=wrap;html=1;fontSize=15;" vertex="1" parent="1">
          <mxGeometry x="640" y="-1400" width="120" height="60" as="geometry" />
        </mxCell>
        <mxCell id="frgmzQPLA8ae-3pXjyA1-19" value="" style="rounded=1;whiteSpace=wrap;html=1;fontSize=15;" vertex="1" parent="1">
          <mxGeometry x="800" y="-1400" width="120" height="60" as="geometry" />
        </mxCell>
        <mxCell id="frgmzQPLA8ae-3pXjyA1-20" value="" style="endArrow=classic;html=1;rounded=0;fontSize=15;entryX=0;entryY=0.5;entryDx=0;entryDy=0;" edge="1" parent="1" target="frgmzQPLA8ae-3pXjyA1-17">
          <mxGeometry width="50" height="50" relative="1" as="geometry">
            <mxPoint x="591" y="-1240" as="sourcePoint" />
            <mxPoint x="631" y="-1240" as="targetPoint" />
          </mxGeometry>
        </mxCell>
        <mxCell id="frgmzQPLA8ae-3pXjyA1-21" value="" style="endArrow=classic;html=1;rounded=0;fontSize=15;" edge="1" parent="1">
          <mxGeometry width="50" height="50" relative="1" as="geometry">
            <mxPoint x="761" y="-1370" as="sourcePoint" />
            <mxPoint x="801" y="-1370" as="targetPoint" />
          </mxGeometry>
        </mxCell>
        <mxCell id="frgmzQPLA8ae-3pXjyA1-22" value="" style="endArrow=classic;html=1;rounded=0;fontSize=15;exitX=0.5;exitY=0;exitDx=0;exitDy=0;entryX=0.5;entryY=1;entryDx=0;entryDy=0;" edge="1" parent="1" source="frgmzQPLA8ae-3pXjyA1-17" target="frgmzQPLA8ae-3pXjyA1-18">
          <mxGeometry width="50" height="50" relative="1" as="geometry">
            <mxPoint x="611" y="-1220" as="sourcePoint" />
            <mxPoint x="651" y="-1220" as="targetPoint" />
          </mxGeometry>
        </mxCell>
        <mxCell id="frgmzQPLA8ae-3pXjyA1-23" value="Laptop" style="text;html=1;strokeColor=none;fillColor=none;align=center;verticalAlign=middle;whiteSpace=wrap;rounded=0;fontSize=15;" vertex="1" parent="1">
          <mxGeometry x="480" y="-1270" width="100" height="50" as="geometry" />
        </mxCell>
        <mxCell id="frgmzQPLA8ae-3pXjyA1-24" value="Github" style="text;html=1;strokeColor=none;fillColor=none;align=center;verticalAlign=middle;whiteSpace=wrap;rounded=0;fontSize=15;" vertex="1" parent="1">
          <mxGeometry x="650" y="-1270" width="100" height="50" as="geometry" />
        </mxCell>
        <mxCell id="frgmzQPLA8ae-3pXjyA1-25" value="Travis" style="text;html=1;strokeColor=none;fillColor=none;align=center;verticalAlign=middle;whiteSpace=wrap;rounded=0;fontSize=15;" vertex="1" parent="1">
          <mxGeometry x="650" y="-1395" width="100" height="50" as="geometry" />
        </mxCell>
        <mxCell id="frgmzQPLA8ae-3pXjyA1-26" value="&lt;font style=&quot;font-size: 12px&quot;&gt;Travis does some work based on travis.yml file&lt;/font&gt;" style="text;html=1;strokeColor=none;fillColor=none;align=center;verticalAlign=middle;whiteSpace=wrap;rounded=0;fontSize=15;" vertex="1" parent="1">
          <mxGeometry x="810" y="-1395" width="100" height="50" as="geometry" />
        </mxCell>
        <mxCell id="frgmzQPLA8ae-3pXjyA1-27" value="Travis YML Configuration" style="text;html=1;strokeColor=#6c8ebf;fillColor=#dae8fc;align=center;verticalAlign=middle;whiteSpace=wrap;rounded=0;fontSize=12;" vertex="1" parent="1">
          <mxGeometry x="40" y="-1130" width="170" height="30" as="geometry" />
        </mxCell>
        <mxCell id="frgmzQPLA8ae-3pXjyA1-28" value="" style="rounded=0;whiteSpace=wrap;html=1;fontSize=12;" vertex="1" parent="1">
          <mxGeometry x="40" y="-1060" width="310" height="40" as="geometry" />
        </mxCell>
        <mxCell id="frgmzQPLA8ae-3pXjyA1-29" value="" style="rounded=0;whiteSpace=wrap;html=1;fontSize=12;" vertex="1" parent="1">
          <mxGeometry x="40" y="-1000" width="310" height="40" as="geometry" />
        </mxCell>
        <mxCell id="frgmzQPLA8ae-3pXjyA1-30" value="" style="rounded=0;whiteSpace=wrap;html=1;fontSize=12;" vertex="1" parent="1">
          <mxGeometry x="40" y="-940" width="310" height="40" as="geometry" />
        </mxCell>
        <mxCell id="frgmzQPLA8ae-3pXjyA1-31" value="" style="rounded=0;whiteSpace=wrap;html=1;fontSize=12;" vertex="1" parent="1">
          <mxGeometry x="40" y="-880" width="310" height="40" as="geometry" />
        </mxCell>
        <mxCell id="frgmzQPLA8ae-3pXjyA1-32" value="Tell Travis CI, we need a copy of docker running" style="text;html=1;strokeColor=none;fillColor=none;align=center;verticalAlign=middle;whiteSpace=wrap;rounded=0;fontSize=12;" vertex="1" parent="1">
          <mxGeometry x="50" y="-1055" width="290" height="30" as="geometry" />
        </mxCell>
        <mxCell id="frgmzQPLA8ae-3pXjyA1-33" value="Build our image using Dockerfile.dev" style="text;html=1;strokeColor=none;fillColor=none;align=center;verticalAlign=middle;whiteSpace=wrap;rounded=0;fontSize=12;" vertex="1" parent="1">
          <mxGeometry x="50" y="-995" width="290" height="30" as="geometry" />
        </mxCell>
        <mxCell id="frgmzQPLA8ae-3pXjyA1-34" value="Tell Travis CI, how to run our test suites" style="text;html=1;strokeColor=none;fillColor=none;align=center;verticalAlign=middle;whiteSpace=wrap;rounded=0;fontSize=12;" vertex="1" parent="1">
          <mxGeometry x="50" y="-935" width="290" height="30" as="geometry" />
        </mxCell>
        <mxCell id="frgmzQPLA8ae-3pXjyA1-35" value="Tell Travis CI, how to deploy our code to AWS" style="text;html=1;strokeColor=none;fillColor=none;align=center;verticalAlign=middle;whiteSpace=wrap;rounded=0;fontSize=12;" vertex="1" parent="1">
          <mxGeometry x="50" y="-875" width="290" height="30" as="geometry" />
        </mxCell>
        <mxCell id="frgmzQPLA8ae-3pXjyA1-36" value="Exposing ports through Dockerfile" style="text;html=1;strokeColor=#9673a6;fillColor=#e1d5e7;align=center;verticalAlign=middle;whiteSpace=wrap;rounded=0;fontSize=12;" vertex="1" parent="1">
          <mxGeometry x="500" y="-1120" width="220" height="30" as="geometry" />
        </mxCell>
        <mxCell id="frgmzQPLA8ae-3pXjyA1-37" value="&lt;div style=&quot;color: rgb(187 , 187 , 187) ; background-color: rgb(0 , 43 , 54) ; font-family: &amp;#34;consolas&amp;#34; , &amp;#34;courier new&amp;#34; , monospace ; font-size: 14px ; line-height: 19px&quot;&gt;&lt;span style=&quot;color: #859900&quot;&gt;EXPOSE&lt;/span&gt; 80&lt;/div&gt;" style="rounded=1;whiteSpace=wrap;html=1;fontSize=12;" vertex="1" parent="1">
          <mxGeometry x="600" y="-1040" width="220" height="60" as="geometry" />
        </mxCell>
      </root>
    </mxGraphModel>
  </diagram>
</mxfile>
